# xmcd
#
# Track frame offsets:
#	225
#	7864
#	27190
#	42612
#	63601
#	75178
#	86081
#	99085
#	108607
#	117730
#	130995
#
# Disc length: 1832 seconds
#
# Revision: 1
# Processed by: cddbd v1.5PL3 Copyright (c) Steve Scherf et al.
# Submitted via: audiograbber 1.83.01
#
DISCID=8907250b
DTITLE=In The Blue Shaddow - V modrém stinu 
DYEAR=1977
DGENRE=Bluegrass
TTITLE0=Úvod
TTITLE1=Tequila Mockingbird
TTITLE2=Wagons Ho
TTITLE3=Kentucky Bullfight
TTITLE4=Hot Buritto Breakdown
TTITLE5=Dìdova lulka
TTITLE6=Èas pøeludù
TTITLE7=Tennessee Waltz
TTITLE8=Proè jsi jen hvìzda
TTITLE9=Tequila Mockingbird
TTITLE10=Pacific Slope
EXTD=
EXTT0=
EXTT1=
EXTT2=
EXTT3=
EXTT4=
EXTT5=
EXTT6=
EXTT7=
EXTT8=
EXTT9=
EXTT10=
PLAYORDER=
